<svg xmlns="http://www.w3.org/2000/svg" xmlns:xlink="http://www.w3.org/1999/xlink" id="Layer_1" x="0px" y="0px" width="149px" height="46.2px" viewBox="0 0 149 46.2" style="enable-background:new 0 0 149 46.2;" xml:space="preserve">
<style type="text/css">
	.st0{fill:#FFFFFF;}
	.st1{fill-rule:evenodd;clip-rule:evenodd;fill:#E8BE00;}
	.st2{fill-rule:evenodd;clip-rule:evenodd;fill:#AC2C3C;}
	.st3{fill-rule:evenodd;clip-rule:evenodd;fill:#6F3EAD;}
	.st4{fill-rule:evenodd;clip-rule:evenodd;fill:#A0CF15;}
	.st5{fill-rule:evenodd;clip-rule:evenodd;fill:#327ABA;}
	.st6{fill-rule:evenodd;clip-rule:evenodd;fill:#39BAB9;}
	.st7{fill-rule:evenodd;clip-rule:evenodd;fill:#EE7A0C;}
	.st8{fill-rule:evenodd;clip-rule:evenodd;fill:#E33F2F;}
	.st9{fill-rule:evenodd;clip-rule:evenodd;fill:#DA2131;}
	.st10{fill-rule:evenodd;clip-rule:evenodd;fill:#2056A4;}
	.st11{fill-rule:evenodd;clip-rule:evenodd;fill:#477C7E;}
	.st12{fill-rule:evenodd;clip-rule:evenodd;fill:#E88402;}
</style>
<rect x="16.7" y="14.7" class="st0" width="16.1" height="16.6"></rect>
<g>
	<polygon class="st1" points="9.6,23 2.1,15.4 2.1,0.4 17.3,15.5  "></polygon>
	<polygon class="st2" points="39.8,23 47.4,15.4 47.4,0.4 32.3,15.5  "></polygon>
	<polygon class="st3" points="47.4,45.7 32.3,45.7 24.8,38.1 32.3,30.6  "></polygon>
	<polygon class="st4" points="2.1,45.7 17.2,45.7 24.8,38.1 17.3,30.6  "></polygon>
	<polygon class="st5" points="39.8,23 47.4,30.7 47.4,45.7 32.3,30.6  "></polygon>
	<polygon class="st6" points="9.6,23 2.1,30.7 2.1,45.7 17.3,30.6  "></polygon>
	<polygon class="st7" points="2.1,0.4 17.2,0.4 24.8,8 17.3,15.5  "></polygon>
	<polygon class="st8" points="47.4,0.4 32.3,0.4 24.8,8 32.3,15.5  "></polygon>
	<polygon class="st9" points="17.3,15.5 24.8,8 32.3,15.5  "></polygon>
	<polygon class="st10" points="32.3,15.5 39.8,23 32.3,30.6  "></polygon>
	<polygon class="st11" points="17.3,30.6 24.8,38.1 32.3,30.6  "></polygon>
	<polygon class="st12" points="17.2,15.5 9.6,23 17.2,30.6  "></polygon>
</g>
<g>
	<g>
		<path class="st0" d="M76.8,17.5c0.7,0.5,1.1,1.3,1.1,2.4c0,0.5,0,0.8-0.1,1.1c-0.1,0.3-0.1,0.6-0.2,0.8c-0.1,0.2-0.2,0.4-0.4,0.5    c-0.1,0.1-0.3,0.2-0.5,0.3c0.2,0.1,0.4,0.2,0.6,0.3c0.2,0.1,0.4,0.3,0.6,0.5s0.3,0.5,0.4,0.9s0.2,0.8,0.2,1.3    c0,0.7-0.1,1.3-0.3,1.8c-0.2,0.5-0.5,0.9-0.8,1.1C77,28.8,76.6,29,76,29.1s-1.2,0.2-1.9,0.2h-9.7V16.8h9.1    C74.9,16.8,76.1,17,76.8,17.5z M74,22.1c0.4,0,0.8,0,1.1-0.1c0.3-0.1,0.6-0.2,0.8-0.3c0.2-0.1,0.4-0.3,0.5-0.6    c0.1-0.3,0.2-0.6,0.2-1c0-0.7-0.2-1.2-0.6-1.6c-0.4-0.3-1.1-0.5-2-0.5h-8.3v4.1H74z M74.5,28.1c0.9,0,1.5-0.2,2-0.5    c0.4-0.4,0.7-1,0.7-1.9s-0.2-1.4-0.7-1.8s-1.1-0.5-2.1-0.5h-8.8v4.7C65.6,28.1,74.5,28.1,74.5,28.1z"></path>
		<path class="st0" d="M81.5,16.8h1.3v12.7h-1.3V16.8z"></path>
		<path class="st0" d="M89.2,29.2c-0.8-0.2-1.5-0.4-2-0.9c-0.5-0.4-0.8-1-1-1.8s-0.3-1.7-0.3-2.9v-1.1c0-1.2,0.1-2.2,0.3-2.9    c0.2-0.8,0.5-1.4,1-1.8s1.1-0.7,2-0.9c0.8-0.2,1.9-0.2,3.3-0.2h2c1.3,0,2.4,0.1,3.2,0.2c0.8,0.2,1.5,0.4,1.9,0.9    c0.5,0.4,0.8,1,1,1.8s0.3,1.7,0.3,2.9v1.1c0,1.2-0.1,2.2-0.3,2.9c-0.2,0.8-0.5,1.3-1,1.8c-0.5,0.4-1.1,0.7-1.9,0.9    c-0.8,0.2-1.9,0.2-3.2,0.2h-2C91.1,29.4,90,29.3,89.2,29.2z M99.5,22.5c0-0.7,0-1.3-0.1-1.8c0-0.5-0.1-0.9-0.2-1.2    c-0.1-0.3-0.3-0.6-0.5-0.8c-0.2-0.2-0.5-0.4-0.9-0.5S97,18,96.4,18c-0.5,0-1.2-0.1-2-0.1h-2c-1.1,0-2.1,0-2.7,0.1    c-0.7,0.1-1.2,0.3-1.5,0.6c-0.4,0.3-0.6,0.8-0.7,1.4s-0.2,1.4-0.2,2.4v1.1c0,1,0.1,1.8,0.2,2.4s0.3,1,0.7,1.4    c0.4,0.3,0.9,0.5,1.5,0.6c0.7,0.1,1.6,0.1,2.7,0.1h2c1.1,0,2,0,2.7-0.1s1.2-0.3,1.5-0.6c0.4-0.3,0.6-0.8,0.7-1.4s0.2-1.4,0.2-2.4    C99.5,23.5,99.5,22.5,99.5,22.5z"></path>
		<path class="st0" d="M116.7,21.2c-0.1,0.3-0.2,0.5-0.3,0.7c-0.1,0.2-0.2,0.3-0.4,0.4c-0.1,0.1-0.3,0.2-0.5,0.2    c0.2,0,0.4,0.1,0.6,0.2s0.4,0.3,0.6,0.6c0.2,0.2,0.3,0.6,0.4,0.9c0.1,0.4,0.2,0.8,0.2,1.4v3.7H116v-3.7c0-0.4,0-0.7-0.1-1    s-0.2-0.5-0.4-0.7c-0.2-0.2-0.5-0.3-0.8-0.4c-0.4-0.1-0.8-0.1-1.4-0.1h-8.7v5.9h-1.3V16.8h9.3c1.5,0,2.6,0.3,3.3,0.8    c0.7,0.5,1,1.4,1,2.5C116.8,20.5,116.8,20.9,116.7,21.2z M112.8,22.1c1,0,1.7-0.2,2.1-0.5s0.6-0.8,0.6-1.5c0-0.6-0.2-1.1-0.6-1.4    c-0.4-0.4-1.1-0.5-2-0.5h-8.3v4h8.2V22.1z"></path>
		<path class="st0" d="M131.1,16.8v1.3h-9.9v4.2h9.6v1.3h-9.6v4.6h9.9v1.3h-11.3V16.8H131.1z"></path>
		<path class="st0" d="M140.1,28h0.3l5.8-11.2h1.5l-6.6,12.7h-1.9l-6.6-12.7h1.5L140.1,28z"></path>
	</g>
</g>
</svg>