<svg xmlns="http://www.w3.org/2000/svg" xmlns:xlink="http://www.w3.org/1999/xlink" id="Layer_1" x="0px" y="0px" width="406px" height="90px" viewBox="0 0 406 90" style="enable-background:new 0 0 406 90;" xml:space="preserve">
<style type="text/css">
	.st0{fill:#FFFFFF;}
	.st1{fill-rule:evenodd;clip-rule:evenodd;fill:#E8BE00;}
	.st2{fill-rule:evenodd;clip-rule:evenodd;fill:#AC2C3C;}
	.st3{fill-rule:evenodd;clip-rule:evenodd;fill:#6F3EAD;}
	.st4{fill-rule:evenodd;clip-rule:evenodd;fill:#A0CF15;}
	.st5{fill-rule:evenodd;clip-rule:evenodd;fill:#327ABA;}
	.st6{fill-rule:evenodd;clip-rule:evenodd;fill:#39BAB9;}
	.st7{fill-rule:evenodd;clip-rule:evenodd;fill:#EE7A0C;}
	.st8{fill-rule:evenodd;clip-rule:evenodd;fill:#E33F2F;}
	.st9{fill-rule:evenodd;clip-rule:evenodd;fill:#DA2131;}
	.st10{fill-rule:evenodd;clip-rule:evenodd;fill:#2056A4;}
	.st11{fill-rule:evenodd;clip-rule:evenodd;fill:#477C7E;}
	.st12{fill-rule:evenodd;clip-rule:evenodd;fill:#E88402;}
</style>
<rect y="0" class="st0" width="90" height="90"></rect>
<g>
	<polygon class="st1" points="26.3,45 17.7,36.3 17.7,19.1 35,36.4  "></polygon>
	<polygon class="st2" points="60.8,45 69.5,36.3 69.5,19.1 52.2,36.4  "></polygon>
	<polygon class="st3" points="69.5,70.9 52.2,70.9 43.6,62.2 52.2,53.6  "></polygon>
	<polygon class="st4" points="17.7,70.9 34.9,70.9 43.6,62.2 35,53.6  "></polygon>
	<polygon class="st5" points="60.8,45 69.5,53.7 69.5,70.9 52.2,53.6  "></polygon>
	<polygon class="st6" points="26.3,45 17.7,53.7 17.7,70.9 35,53.6  "></polygon>
	<polygon class="st7" points="17.7,19.1 34.9,19.1 43.6,27.8 35,36.4  "></polygon>
	<polygon class="st8" points="69.5,19.1 52.2,19.1 43.6,27.8 52.2,36.4  "></polygon>
	<polygon class="st9" points="35,36.4 43.6,27.8 52.2,36.4  "></polygon>
	<polygon class="st10" points="52.2,36.4 60.8,45 52.2,53.6  "></polygon>
	<polygon class="st11" points="35,53.6 43.6,62.2 52.2,53.6  "></polygon>
	<polygon class="st12" points="34.9,36.4 26.3,45 34.9,53.6  "></polygon>
</g>
<g>
	<g>
		<path class="st0" d="M109.7,68.3c0,0,1.2,1.5,3.1,1.5c1.3,0,2.4-0.8,2.4-2.1c0-2.9-5.9-2.4-5.9-6c0-1.7,1.4-3,3.6-3    c1.2,0,3.2,0.5,3.2,2.1v0.8H115V61c0-0.7-1-1.2-2.1-1.2c-1.5,0-2.4,0.9-2.4,1.9c0,2.8,5.9,2.1,5.9,6c0,1.8-1.4,3.3-3.6,3.3    c-2.4,0-3.8-1.7-3.8-1.7L109.7,68.3z"></path>
		<path class="st0" d="M120.2,59.7h-1.1v-1.1h6.8c0.7,0,1,0.3,1,1v1.2h-1.1V60c0-0.3-0.1-0.4-0.4-0.4h-4.1v4.3h4.5V65h-4.5v4    c0,0.3,0.1,0.4,0.4,0.4h4.2c0.2,0,0.4-0.1,0.4-0.4v-0.8h1.1v1.2c0,0.7-0.3,1-1,1h-5.1c-0.7,0-1-0.3-1-1v-9.7H120.2z"></path>
		<path class="st0" d="M130.9,59.7h-1.1v-1.1h5c2,0,3.4,1.3,3.4,3.4c0,1.8-1.1,2.9-2.3,3.2l0,0c0,0,0.2,0.1,0.4,0.5l1.7,3.4    c0.2,0.4,0.4,0.4,0.8,0.4h0.2v1.1h-0.5c-1,0-1.3-0.1-1.6-0.9l-1.7-3.4c-0.3-0.6-0.5-0.7-1.2-0.7h-2v5h-1.2V59.7H130.9z     M134.7,64.5c1.4,0,2.3-0.9,2.3-2.4s-0.9-2.4-2.3-2.4H132v4.8H134.7z"></path>
		<path class="st0" d="M141.5,60.1c-0.1-0.3-0.3-0.4-0.6-0.4h-0.2v-1.1h0.5c0.8,0,1.1,0.2,1.4,1l2.9,8c0.2,0.6,0.5,1.5,0.5,1.5l0,0    c0,0,0.2-0.9,0.5-1.5l2.9-8c0.3-0.8,0.6-1,1.4-1h0.5v1.1h-0.2c-0.3,0-0.5,0.1-0.6,0.4l-3.9,10.5h-1.3L141.5,60.1z"></path>
		<path class="st0" d="M153.6,69.6h1.1v-9.8h-1.1v-1.1h3.4v1.1h-1.1v9.8h1.1v1.1h-3.4V69.6z"></path>
		<path class="st0" d="M165.6,58.5c1.7,0,4.5,0.7,4.5,2.5v1H169v-0.7c0-1.1-1.9-1.7-3.3-1.7c-2.6,0-4.7,2.1-4.7,4.9s2,5.1,4.7,5.1    c2.5,0,3.9-1.7,3.9-1.7l0.7,0.9c0,0-1.6,1.9-4.6,1.9c-3.5,0-5.9-2.8-5.9-6.3C159.7,61.1,162.3,58.5,165.6,58.5z"></path>
		<path class="st0" d="M173.9,59.7h-1.1v-1.1h6.8c0.7,0,1,0.3,1,1v1.2h-1.1V60c0-0.3-0.1-0.4-0.4-0.4H175v4.3h4.5V65H175v4    c0,0.3,0.1,0.4,0.4,0.4h4.2c0.2,0,0.4-0.1,0.4-0.4v-0.8h1.1v1.2c0,0.7-0.3,1-1,1H175c-0.7,0-1-0.3-1-1L173.9,59.7L173.9,59.7z"></path>
		<path class="st0" d="M190.1,68.3c0,0,1.2,1.5,3.1,1.5c1.3,0,2.4-0.8,2.4-2.1c0-2.9-5.9-2.4-5.9-6c0-1.7,1.4-3,3.6-3    c1.2,0,3.2,0.5,3.2,2.1v0.8h-1.1V61c0-0.7-1-1.2-2.1-1.2c-1.5,0-2.4,0.9-2.4,1.9c0,2.8,5.9,2.1,5.9,6c0,1.8-1.4,3.3-3.6,3.3    c-2.4,0-3.8-1.7-3.8-1.7L190.1,68.3z"></path>
		<path class="st0" d="M198.9,69.6h0.2c0.3,0,0.5-0.1,0.6-0.4l3.9-10.5h1.3l3.9,10.5c0.1,0.3,0.3,0.4,0.6,0.4h0.2v1.1h-0.5    c-0.8,0-1.1-0.2-1.4-1l-1-2.8H202l-1.1,2.8c-0.3,0.8-0.5,1-1.4,1h-0.6V69.6z M206.3,65.8l-1.6-4.3c-0.1-0.5-0.4-1.5-0.4-1.5l0,0    c0,0-0.3,1-0.5,1.5l-1.6,4.3H206.3z"></path>
		<path class="st0" d="M214.3,59.7h-2.9c-0.2,0-0.4,0.1-0.4,0.4v0.8h-1.1v-1.3c0-0.7,0.2-1,1-1h8.1c0.7,0,1,0.2,1,1v1.3h-1.1v-0.8    c0-0.3-0.1-0.4-0.4-0.4h-2.9v10.9h-1.3V59.7z"></path>
		<path class="st0" d="M222.2,69.6h1.1v-9.8h-1.1v-1.1h3.4v1.1h-1.1v9.8h1.1v1.1h-3.4V69.6z"></path>
		<path class="st0" d="M229,68.3c0,0,1.2,1.5,3.1,1.5c1.3,0,2.4-0.8,2.4-2.1c0-2.9-5.9-2.4-5.9-6c0-1.7,1.4-3,3.6-3    c1.2,0,3.2,0.5,3.2,2.1v0.8h-1.1V61c0-0.7-1-1.2-2.1-1.2c-1.5,0-2.4,0.9-2.4,1.9c0,2.8,5.9,2.1,5.9,6c0,1.8-1.4,3.3-3.6,3.3    c-2.4,0-3.8-1.7-3.8-1.7L229,68.3z"></path>
		<path class="st0" d="M239.5,59.7h-1.1v-1.1h6.3c0.7,0,1,0.3,1,1v1.2h-1.1V60c0-0.3-0.1-0.4-0.4-0.4h-3.6v4.5h4.3v1.1h-4.3v5.3    h-1.2V59.7H239.5z"></path>
		<path class="st0" d="M246.8,69.6h0.2c0.3,0,0.5-0.1,0.6-0.4l3.9-10.5h1.3l3.9,10.5c0.1,0.3,0.3,0.4,0.6,0.4h0.2v1.1H257    c-0.8,0-1.1-0.2-1.4-1l-1-2.8h-4.7l-1.1,2.8c-0.3,0.8-0.5,1-1.4,1h-0.6V69.6z M254.3,65.8l-1.6-4.3c-0.2-0.6-0.5-1.5-0.5-1.5l0,0    c0,0-0.3,1-0.5,1.5l-1.6,4.3H254.3z"></path>
		<path class="st0" d="M265.3,58.5c1.7,0,4.5,0.7,4.5,2.5v1h-1.1v-0.7c0-1.1-1.9-1.7-3.3-1.7c-2.6,0-4.7,2.1-4.7,4.9s2,5.1,4.7,5.1    c2.5,0,3.9-1.7,3.9-1.7l0.7,0.9c0,0-1.6,1.9-4.6,1.9c-3.5,0-5.9-2.8-5.9-6.3C259.5,61.1,262,58.5,265.3,58.5z"></path>
		<path class="st0" d="M276.5,59.7h-2.9c-0.2,0-0.4,0.1-0.4,0.4v0.8h-1.1v-1.3c0-0.7,0.2-1,1-1h8.1c0.7,0,1,0.2,1,1v1.3h-1.1v-0.8    c0-0.3-0.1-0.4-0.4-0.4h-2.9v10.9h-1.2V59.7H276.5z"></path>
		<path class="st0" d="M284.4,69.6h1.1v-9.8h-1.1v-1.1h3.4v1.1h-1.1v9.8h1.1v1.1h-3.4V69.6z"></path>
		<path class="st0" d="M296.5,58.5c3.4,0,6.1,2.7,6.1,6.1c0,3.5-2.7,6.2-6.1,6.2s-6.1-2.7-6.1-6.2C290.5,61.2,293.2,58.5,296.5,58.5    z M296.5,69.7c2.7,0,4.8-2.2,4.8-5.1c0-2.8-2.2-5-4.8-5c-2.7,0-4.8,2.2-4.8,5C291.7,67.5,293.9,69.7,296.5,69.7z"></path>
		<path class="st0" d="M305.2,69.6h0.7c0.2,0,0.4-0.1,0.4-0.4V58.7h1.1l6.1,8.5c0.4,0.6,1,1.6,1,1.6l0,0c0,0-0.1-0.9-0.1-1.6v-7.5    c0-0.7,0.3-1,1-1h1.3v1.1H316c-0.2,0-0.4,0.1-0.4,0.4v10.5h-1.1l-6.1-8.5c-0.4-0.6-1-1.5-1-1.5l0,0c0,0,0.1,0.9,0.1,1.5v7.5    c0,0.7-0.3,1-1,1h-1.3V69.6z"></path>
		<path class="st0" d="M325.9,68.3c0,0,1.2,1.5,3.1,1.5c1.3,0,2.4-0.8,2.4-2.1c0-2.9-5.9-2.4-5.9-6c0-1.7,1.4-3,3.6-3    c1.2,0,3.2,0.5,3.2,2.1v0.8h-1.1V61c0-0.7-1-1.2-2.1-1.2c-1.5,0-2.4,0.9-2.4,1.9c0,2.8,5.9,2.1,5.9,6c0,1.8-1.4,3.3-3.6,3.3    c-2.4,0-3.8-1.7-3.8-1.7L325.9,68.3z"></path>
		<path class="st0" d="M336.2,60.1c0-0.3-0.1-0.4-0.4-0.4h-0.7v-1.1h1.3c0.7,0,1,0.3,1,1v6.7c0,2,1.3,3.2,3.2,3.2    c1.9,0,3.2-1.2,3.2-3.3v-6.7c0-0.7,0.3-1,1-1h1.3v1.1h-0.7c-0.2,0-0.4,0.1-0.4,0.4v6.4c0,2.6-1.8,4.3-4.4,4.3s-4.4-1.7-4.4-4.3    V60.1z"></path>
		<path class="st0" d="M354.5,58.5c1.7,0,4.5,0.7,4.5,2.5v1h-1.1v-0.7c0-1.1-1.9-1.7-3.3-1.7c-2.6,0-4.7,2.1-4.7,4.9s2,5.1,4.7,5.1    c2.5,0,3.9-1.7,3.9-1.7l0.7,0.9c0,0-1.6,1.9-4.6,1.9c-3.5,0-5.9-2.8-5.9-6.3C348.6,61.1,351.1,58.5,354.5,58.5z"></path>
		<path class="st0" d="M367.4,58.5c1.7,0,4.5,0.7,4.5,2.5v1h-1.1v-0.7c0-1.1-1.9-1.7-3.3-1.7c-2.6,0-4.7,2.1-4.7,4.9s2,5.1,4.7,5.1    c2.5,0,3.9-1.7,3.9-1.7l0.7,0.9c0,0-1.6,1.9-4.6,1.9c-3.5,0-5.9-2.8-5.9-6.3C361.6,61.1,364.1,58.5,367.4,58.5z"></path>
		<path class="st0" d="M375.7,59.7h-1.1v-1.1h6.8c0.7,0,1,0.3,1,1v1.2h-1.1V60c0-0.3-0.1-0.4-0.4-0.4h-4.1v4.3h4.5V65h-4.5v4    c0,0.3,0.1,0.4,0.4,0.4h4.2c0.2,0,0.4-0.1,0.4-0.4v-0.8h1.1v1.2c0,0.7-0.3,1-1,1h-5.1c-0.7,0-1-0.3-1-1L375.7,59.7L375.7,59.7z"></path>
		<path class="st0" d="M386,68.3c0,0,1.2,1.5,3.1,1.5c1.3,0,2.4-0.8,2.4-2.1c0-2.9-5.9-2.4-5.9-6c0-1.7,1.4-3,3.6-3    c1.2,0,3.2,0.5,3.2,2.1v0.8h-1.1V61c0-0.7-1-1.2-2.1-1.2c-1.5,0-2.4,0.9-2.4,1.9c0,2.8,5.9,2.1,5.9,6c0,1.8-1.4,3.3-3.6,3.3    c-2.4,0-3.8-1.7-3.8-1.7L386,68.3z"></path>
		<path class="st0" d="M396,68.3c0,0,1.2,1.5,3.1,1.5c1.3,0,2.4-0.8,2.4-2.1c0-2.9-5.9-2.4-5.9-6c0-1.7,1.4-3,3.6-3    c1.2,0,3.2,0.5,3.2,2.1v0.8h-1.1V61c0-0.7-1-1.2-2.1-1.2c-1.5,0-2.4,0.9-2.4,1.9c0,2.8,5.9,2.1,5.9,6c0,1.8-1.4,3.3-3.6,3.3    c-2.4,0-3.8-1.7-3.8-1.7L396,68.3z"></path>
	</g>
	<g>
		<g>
			<path class="st0" d="M139.3,21.1c1.7,1.2,2.6,3.2,2.6,5.8c0,1.1-0.1,2-0.2,2.8c-0.1,0.8-0.3,1.4-0.6,1.9     c-0.2,0.5-0.5,0.9-0.9,1.2c-0.3,0.3-0.7,0.6-1.2,0.8c0.4,0.2,0.9,0.4,1.4,0.7s1,0.7,1.4,1.2c0.4,0.5,0.8,1.2,1.1,2.1     c0.3,0.9,0.4,1.9,0.4,3.2c0,1.7-0.2,3.1-0.7,4.3c-0.5,1.1-1.1,2.1-2.1,2.8c-0.9,0.7-2,1.2-3.4,1.5c-1.3,0.3-2.9,0.4-4.7,0.4     h-23.3V19.3h22C134.9,19.3,137.6,19.9,139.3,21.1z M132.5,32.2c1,0,1.9-0.1,2.7-0.2c0.8-0.1,1.4-0.4,2-0.7     c0.5-0.4,0.9-0.8,1.2-1.5c0.3-0.6,0.4-1.4,0.4-2.4c0-1.7-0.5-2.9-1.4-3.8c-0.9-0.8-2.6-1.3-4.9-1.3h-20.2v9.8L132.5,32.2     L132.5,32.2z M133.9,46.7c2.1,0,3.7-0.4,4.8-1.3c1.1-0.9,1.6-2.4,1.6-4.5s-0.5-3.5-1.6-4.3c-1.1-0.8-2.7-1.2-5-1.2h-21.4v11.3     H133.9z"></path>
			<path class="st0" d="M150.7,19.3h3.2v30.6h-3.2V19.3z"></path>
			<path class="st0" d="M169.3,49.3c-2-0.4-3.6-1.1-4.7-2.1c-1.1-1-1.9-2.5-2.3-4.3c-0.4-1.8-0.6-4.2-0.6-7.1v-2.6     c0-2.9,0.2-5.3,0.6-7.1c0.4-1.8,1.2-3.3,2.3-4.3c1.1-1,2.7-1.7,4.7-2.1s4.6-0.6,7.9-0.6h4.9c3.2,0,5.8,0.2,7.8,0.6     s3.6,1.1,4.7,2.1c1.1,1,1.9,2.5,2.3,4.3c0.4,1.8,0.6,4.2,0.6,7.1v2.6c0,2.9-0.2,5.3-0.6,7.1c-0.4,1.8-1.2,3.2-2.3,4.3     c-1.1,1-2.7,1.7-4.7,2.1c-2,0.4-4.6,0.6-7.8,0.6h-4.9C173.9,49.9,171.3,49.7,169.3,49.3z M194.3,33.2c0-1.6-0.1-3.1-0.2-4.2     c-0.1-1.2-0.3-2.2-0.6-3s-0.7-1.5-1.3-1.9c-0.6-0.5-1.3-0.9-2.2-1.1s-2-0.4-3.4-0.5c-1.3-0.1-2.9-0.1-4.7-0.1h-4.8     c-2.8,0-5,0.1-6.6,0.3c-1.6,0.2-2.9,0.7-3.7,1.4c-0.9,0.7-1.4,1.8-1.7,3.3c-0.3,1.4-0.4,3.4-0.4,5.9v2.6c0,2.4,0.1,4.4,0.4,5.8     c0.2,1.4,0.8,2.5,1.7,3.3c0.9,0.7,2.1,1.2,3.7,1.4c1.6,0.2,3.8,0.3,6.6,0.3h4.8c2.8,0,5-0.1,6.6-0.3s2.9-0.7,3.7-1.4     c0.9-0.7,1.4-1.8,1.7-3.3c0.2-1.4,0.4-3.4,0.4-5.8V33.2z"></path>
			<path class="st0" d="M235.7,29.9c-0.2,0.7-0.4,1.3-0.6,1.7c-0.3,0.5-0.6,0.8-0.9,1.1c-0.4,0.3-0.7,0.4-1.1,0.6     c0.5,0.1,1,0.3,1.5,0.6s1,0.8,1.4,1.4c0.4,0.6,0.8,1.4,1.1,2.3c0.3,0.9,0.4,2,0.4,3.4v9h-3.4v-9c0-1-0.1-1.8-0.3-2.5     s-0.5-1.2-1-1.6c-0.5-0.4-1.2-0.7-2-0.9c-0.9-0.2-1.9-0.3-3.3-0.3h-21v14.2h-3.2V19.3h22.4c3.6,0,6.2,0.7,7.9,2     c1.6,1.3,2.4,3.3,2.4,6C236,28.3,235.9,29.2,235.7,29.9z M226.3,32.2c2.4,0,4.1-0.4,5-1.2c1-0.8,1.4-2,1.4-3.5     c0-1.4-0.5-2.6-1.4-3.5c-1-0.9-2.6-1.3-4.8-1.3h-20.1v9.6h19.9V32.2z"></path>
			<path class="st0" d="M270.4,19.3v3.2h-24v10.1h23.3v3.2h-23.3v11h24V50h-27.2V19.3H270.4z"></path>
			<path class="st0" d="M292.2,46.4h0.7L307,19.2h3.7l-15.9,30.6h-4.5l-15.9-30.6h3.7L292.2,46.4z"></path>
		</g>
	</g>
</g>
</svg>